<svg width="22" height="24" viewBox="0 0 22 24" fill="none" xmlns="http://www.w3.org/2000/svg">
<path d="M10.6545 5.77578C10.3986 4.3804 11.0583 2.94439 11.8529 1.97664C12.7286 0.908854 14.2314 0.0899883 15.5157 0C15.7326 1.46297 15.1356 2.88836 14.3497 3.8966C13.5066 4.97974 12.0571 5.8197 10.6545 5.77578ZM18.1875 10.832C18.5849 9.72329 19.3722 8.72577 20.5935 8.05273C19.3593 6.5126 17.6265 5.61845 15.9912 5.61845C13.8277 5.61845 12.9129 6.64923 11.4102 6.64923C9.86214 6.64923 8.68774 5.61845 6.81372 5.61845C4.97605 5.61845 3.01993 6.73851 1.77935 8.65142C1.32321 9.3585 1.01422 10.2369 0.845701 11.2153C0.378099 13.96 1.07659 17.535 3.16018 20.7094C4.17325 22.2497 5.52359 23.9847 7.28766 23.9998C8.85912 24.0152 9.30493 22.9951 11.4323 22.9846C13.5628 22.9725 13.9666 24.0104 15.5359 23.9954C17.3005 23.9805 18.7252 22.0604 19.7383 20.5203C20.4596 19.4151 20.7324 18.8568 21.2933 17.6073C18.4412 16.5317 17.2681 13.3889 18.1875 10.832Z" fill="#253017"/>
</svg>
